<?xml version="1.0" encoding="UTF-8"?>
<svg width="8px" height="8px" viewBox="0 0 8 8" version="1.1" xmlns="http://www.w3.org/2000/svg" xmlns:xlink="http://www.w3.org/1999/xlink">
    <!-- Generator: Sketch 43.2 (39069) - http://www.bohemiancoding.com/sketch -->
    <title>Page 1</title>
    <desc>Created with Sketch.</desc>
    <defs></defs>
    <g id="Page-1" stroke="none" stroke-width="1" fill="none" fill-rule="evenodd">
        <g id="Dark" transform="translate(-51.000000, -743.000000)" fill="#D0D0D0">
            <g id="Left-Column" transform="translate(-20.000000, 100.000000)">
                <g id="Links" transform="translate(70.000000, 641.000000)">
                    <path d="M8.25,2.5 L1.75,2.5 C1.612,2.5 1.5,2.6125 1.5,2.75 L1.5,3 L8.5,3 L8.5,2.75 C8.5,2.6125 8.388,2.5 8.25,2.5 M1.75,9.0005 L8.25,9.0005 C8.388,9.0005 8.5,8.888 8.5,8.75 L8.5,3.5 L1.5,3.5 L1.5,8.75 C1.5,8.888 1.612,9.0005 1.75,9.0005 M8.75,9.5 L1.25,9.5 C1.112,9.5 1,9.388 1,9.25 L1,2.25 C1,2.1125 1.112,2 1.25,2 L8.75,2 C8.888,2 9,2.1125 9,2.25 L9,9.25 C9,9.388 8.888,9.5 8.75,9.5" id="Page-1"></path>
                </g>
            </g>
        </g>
    </g>
</svg>