<?xml version="1.0" encoding="UTF-8"?>
<svg width="10px" height="10px" viewBox="0 0 10 10" version="1.1" xmlns="http://www.w3.org/2000/svg" xmlns:xlink="http://www.w3.org/1999/xlink">
    <!-- Generator: Sketch 43.2 (39069) - http://www.bohemiancoding.com/sketch -->
    <title>Fill 1</title>
    <desc>Created with Sketch.</desc>
    <defs></defs>
    <g id="Page-1" stroke="none" stroke-width="1" fill="none" fill-rule="evenodd">
        <g id="Dark" transform="translate(-50.000000, -785.000000)" stroke="#D0D0D0" stroke-width="0.1" fill="#D0D0D0">
            <g id="Left-Column" transform="translate(-20.000000, 100.000000)">
                <g id="Links" transform="translate(70.000000, 641.000000)">
                    <path d="M8.7485,45.5045 L6.9195,45.5045 C8.1565,46.184 9,47.492 9,49.0035 C9,51.213 7.209,53.0035 5,53.0035 C2.7905,53.0035 1,51.213 1,49.0035 C1,46.9645 2.5275,45.285 4.5,45.038 L4.5,45.5545 C2.8055,45.799 1.5,47.2425 1.5,49.0035 C1.5,50.937 3.067,52.5035 5,52.5035 C6.9325,52.5035 8.5,50.937 8.5,49.0035 C8.5,47.61 7.6795,46.417 6.5005,45.854 L6.5005,47.7525 C6.5005,47.8905 6.3885,48.0025 6.25,48.0025 C6.1125,48.0025 6,47.8905 6,47.7525 L6,45.6665 L6,45.1365 C6.0085,45.139 6.0175,45.1395 6.026,45.1415 C6.045,45.1055 6.072,45.0765 6.1055,45.0535 C6.114,45.0465 6.122,45.041 6.1315,45.0355 C6.158,45.0215 6.187,45.0135 6.2185,45.01 C6.2295,45.008 6.238,45 6.25,45 C6.257,45 6.2625,45.0035 6.2695,45.004 L8.7485,45.004 C8.8865,45.004 8.999,45.116 8.999,45.2545 C8.999,45.3925 8.8865,45.5045 8.7485,45.5045" id="Fill-1" transform="translate(5.000000, 49.001750) rotate(-270.000000) translate(-5.000000, -49.001750) "></path>
                </g>
            </g>
        </g>
    </g>
</svg>