<?xml version="1.0" encoding="UTF-8"?>
<svg width="44px" height="7px" viewBox="0 0 44 7" version="1.1" xmlns="http://www.w3.org/2000/svg" xmlns:xlink="http://www.w3.org/1999/xlink">
    <!-- Generator: Sketch 43.2 (39069) - http://www.bohemiancoding.com/sketch -->
    <title>icon-arrow</title>
    <desc>Created with Sketch.</desc>
    <defs></defs>
    <g id="Page-1" stroke="none" stroke-width="1" fill="none" fill-rule="evenodd">
        <g id="Dark" transform="translate(-1347.000000, -847.000000)" fill="#8B8B8B">
            <g id="Left-Column" transform="translate(-20.000000, 100.000000)">
                <g id="Your-Next-Goal" transform="translate(757.000000, 601.000000)">
                    <path d="M612.119931,148.967588 L614.164901,146.922617 C614.375963,146.711556 614.375963,146.369358 614.164901,146.158296 C613.95384,145.947235 613.611642,145.947235 613.40058,146.158296 L610.483863,149.075013 C610.455628,149.094087 610.428796,149.116121 610.403803,149.141114 C610.192741,149.352175 610.192741,149.694374 610.403803,149.905435 L613.388573,152.890205 C613.599634,153.101267 613.941833,153.101267 614.152894,152.890205 C614.363956,152.679144 614.363956,152.336945 614.152894,152.125884 L611.994598,149.967588 L653.002611,149.967588 C653.299403,149.967588 653.54,149.74373 653.54,149.467588 C653.54,149.191445 653.299403,148.967588 653.002611,148.967588 L612.119931,148.967588 Z" id="icon-arrow" transform="translate(631.892753, 149.524251) rotate(-180.000000) translate(-631.892753, -149.524251) "></path>
                </g>
            </g>
        </g>
    </g>
</svg>