<?xml version="1.0" encoding="UTF-8"?>
<svg width="8px" height="8px" viewBox="0 0 8 8" version="1.1" xmlns="http://www.w3.org/2000/svg" xmlns:xlink="http://www.w3.org/1999/xlink">
    <!-- Generator: Sketch 43.2 (39069) - http://www.bohemiancoding.com/sketch -->
    <title>Page 1</title>
    <desc>Created with Sketch.</desc>
    <defs></defs>
    <g id="Page-1" stroke="none" stroke-width="1" fill="none" fill-rule="evenodd">
        <g id="Dark" transform="translate(-51.000000, -765.000000)" fill="#D0D0D0">
            <g id="Left-Column" transform="translate(-20.000000, 100.000000)">
                <g id="Links" transform="translate(70.000000, 641.000000)">
                    <path d="M6.5,27.9995 L6.5,27.9995 C6.5,28.5705 6.4535,29.11 6.373,29.6 C6.965,29.688 7.4715,29.83 7.8485,30.01 C8.253,29.4405 8.5,28.752 8.5,27.9995 L6.5,27.9995 Z M7.8395,25.9745 C7.4685,26.1595 6.964,26.306 6.371,26.397 C6.428,26.7425 6.469,27.111 6.4875,27.4995 L8.4565,27.4995 C8.375,26.935 8.156,26.418 7.8395,25.9745 L7.8395,25.9745 Z M5.7845,24.595 C5.987,24.927 6.156,25.386 6.2795,25.9265 C6.6415,25.8835 6.9665,25.823 7.2315,25.7495 L7.6605,25.7495 C7.182,25.184 6.533,24.7675 5.7845,24.595 L5.7845,24.595 Z M5,24.4995 C4.6655,24.4995 4.3735,25.084 4.193,25.9685 C4.4515,25.987 4.7185,26 5,26 C5.2815,26 5.5485,25.987 5.8065,25.9685 C5.6265,25.084 5.3345,24.4995 5,24.4995 L5,24.4995 Z M2.339,25.7495 L2.7685,25.7495 C3.0335,25.823 3.358,25.8835 3.7205,25.9265 C3.844,25.386 4.013,24.927 4.2155,24.595 C3.467,24.7675 2.8175,25.184 2.339,25.7495 L2.339,25.7495 Z M2.1605,25.9745 C1.844,26.418 1.625,26.935 1.5435,27.4995 L3.5125,27.4995 C3.5305,27.111 3.572,26.7425 3.629,26.397 C3.036,26.306 2.5315,26.1595 2.1605,25.9745 L2.1605,25.9745 Z M1.5,27.9995 C1.5,28.752 1.747,29.4405 2.1515,30.01 C2.5285,29.83 3.035,29.688 3.627,29.6 C3.546,29.11 3.5,28.5705 3.5,27.9995 L1.5,27.9995 Z M4.2155,31.404 C4.0125,31.0715 3.8435,30.6115 3.7195,30.0705 C3.344,30.1135 3.0095,30.1745 2.7355,30.2495 L2.331,30.2495 C2.8115,30.816 3.466,31.232 4.2155,31.404 L4.2155,31.404 Z M5.9855,27.4995 C5.97,27.1285 5.936,26.7805 5.89,26.456 C5.605,26.483 5.3085,26.4995 5,26.4995 C4.691,26.4995 4.3945,26.483 4.1095,26.456 C4.064,26.7805 4.0295,27.1285 4.0145,27.4995 L5.9855,27.4995 Z M6,27.9995 L6,27.9995 L4,27.9995 C4,28.556 4.0405,29.0755 4.1065,29.5425 C4.393,29.516 4.69,29.4995 5,29.4995 C5.31,29.4995 5.607,29.516 5.8935,29.5425 C5.9595,29.0755 6,28.556 6,27.9995 L6,27.9995 Z M5,31.4995 C5.3355,31.4995 5.6305,30.9165 5.812,30.0305 C5.552,30.012 5.283,29.9995 5,29.9995 C4.7165,29.9995 4.448,30.012 4.188,30.0305 C4.3695,30.9165 4.6645,31.4995 5,31.4995 L5,31.4995 Z M7.669,30.2495 L7.264,30.2495 C6.9905,30.1745 6.656,30.1135 6.2805,30.0705 C6.1565,30.6115 5.987,31.0715 5.7845,31.404 C6.534,31.232 7.188,30.816 7.669,30.2495 L7.669,30.2495 Z M5,31.9995 C2.791,31.9995 1,30.209 1,27.9995 C1,25.791 2.791,24 5,24 C7.209,24 9,25.791 9,27.9995 C9,30.209 7.209,31.9995 5,31.9995 L5,31.9995 Z" id="Page-1"></path>
                </g>
            </g>
        </g>
    </g>
</svg>