<?xml version="1.0" encoding="UTF-8"?>
<svg width="8px" height="8px" viewBox="0 0 8 8" version="1.1" xmlns="http://www.w3.org/2000/svg" xmlns:xlink="http://www.w3.org/1999/xlink">
    <!-- Generator: Sketch 43.2 (39069) - http://www.bohemiancoding.com/sketch -->
    <title>Page 1</title>
    <desc>Created with Sketch.</desc>
    <defs></defs>
    <g id="Page-1" stroke="none" stroke-width="1" fill="none" fill-rule="evenodd">
        <g id="Dark" transform="translate(-51.000000, -831.000000)" fill="#D0D0D0">
            <g id="Left-Column" transform="translate(-20.000000, 100.000000)">
                <g id="Links" transform="translate(70.000000, 641.000000)">
                    <path d="M5,93.00025 C4.4475,93.00025 4,93.44775 4,94.00025 C4,94.55225 4.4475,94.99975 5,94.99975 C5.552,94.99975 6,94.55225 6,94.00025 C6,93.44775 5.552,93.00025 5,93.00025 L5,93.00025 Z M5,95.50025 C4.1715,95.50025 3.5,94.82825 3.5,94.00025 C3.5,93.17175 4.1715,92.50025 5,92.50025 C5.828,92.50025 6.5,93.17175 6.5,94.00025 C6.5,94.82825 5.828,95.50025 5,95.50025 L5,95.50025 Z M7.7035,93.50025 C7.6325,93.11325 7.4755,92.75775 7.2605,92.44675 L7.4745,92.23225 C7.67,92.03675 7.67,91.72025 7.4745,91.52525 C7.2795,91.33025 6.963,91.33025 6.7675,91.52525 L6.552,91.74075 C6.2405,91.52725 5.8855,91.37125 5.5,91.30025 L5.5,91.00025 C5.5,90.72375 5.276,90.50025 5,90.50025 C4.7235,90.50025 4.5,90.72375 4.5,91.00025 L4.5,91.30025 C4.1145,91.37125 3.7595,91.52725 3.448,91.74075 L3.2325,91.52525 C3.0365,91.33025 2.72,91.33025 2.525,91.52525 C2.33,91.72025 2.33,92.03675 2.525,92.23225 L2.7395,92.44675 C2.524,92.75775 2.367,93.11325 2.296,93.50025 L2,93.50025 C1.7235,93.50025 1.5,93.72375 1.5,94.00025 C1.5,94.27625 1.7235,94.49975 2,94.49975 L2.296,94.49975 C2.367,94.88675 2.524,95.24175 2.7395,95.55325 L2.525,95.76775 C2.33,95.96325 2.33,96.27925 2.525,96.47475 C2.72,96.66975 3.0365,96.66975 3.2325,96.47475 L3.448,96.25925 C3.7595,96.47275 4.1145,96.62825 4.5,96.69925 L4.5,96.99975 C4.5,97.27625 4.7235,97.49975 5,97.49975 C5.276,97.49975 5.5,97.27625 5.5,96.99975 L5.5,96.69925 C5.8855,96.62825 6.2405,96.47275 6.552,96.25925 L6.7675,96.47475 C6.963,96.66975 7.2795,96.66975 7.4745,96.47475 C7.67,96.27925 7.67,95.96325 7.4745,95.76775 L7.2605,95.55325 C7.4755,95.24175 7.6325,94.88675 7.7035,94.49975 L8,94.49975 C8.276,94.49975 8.5,94.27625 8.5,94.00025 C8.5,93.72375 8.276,93.50025 8,93.50025 L7.7035,93.50025 Z M9,94.00025 C9,94.52525 8.5935,94.95025 8.079,94.99175 C8.024,95.16325 7.957,95.32725 7.875,95.48475 C8.2055,95.87775 8.198,96.45875 7.828,96.82825 C7.459,97.19775 6.878,97.20525 6.485,96.87525 C6.327,96.95675 6.163,97.02425 5.992,97.07925 C5.9505,97.59425 5.525,97.99975 5,97.99975 C4.4745,97.99975 4.049,97.59425 4.008,97.07925 C3.8365,97.02425 3.6725,96.95675 3.5145,96.87525 C3.122,97.20525 2.541,97.19775 2.1715,96.82825 C1.802,96.45875 1.7945,95.87775 2.1245,95.48475 C2.043,95.32725 1.9755,95.16325 1.9205,94.99175 C1.4065,94.95025 1,94.52525 1,94.00025 C1,93.47475 1.4065,93.04925 1.9205,93.00825 C1.9755,92.83675 2.043,92.67275 2.1245,92.51525 C1.7945,92.12225 1.802,91.54125 2.1715,91.17175 C2.541,90.80225 3.122,90.79475 3.5145,91.12475 C3.6725,91.04275 3.8365,90.97575 4.008,90.92025 C4.049,90.40575 4.4745,90.00025 5,90.00025 C5.525,90.00025 5.9505,90.40575 5.992,90.92025 C6.163,90.97575 6.327,91.04275 6.485,91.12475 C6.878,90.79475 7.459,90.80225 7.828,91.17175 C8.198,91.54125 8.2055,92.12225 7.875,92.51525 C7.957,92.67275 8.024,92.83675 8.079,93.00825 C8.5935,93.04925 9,93.47475 9,94.00025 L9,94.00025 Z" id="Page-1"></path>
                </g>
            </g>
        </g>
    </g>
</svg>